<?xml version="1.0" encoding="UTF-8" standalone="no"?>
<svg
   xmlns:dc="http://purl.org/dc/elements/1.1/"
   xmlns:cc="http://creativecommons.org/ns#"
   xmlns:rdf="http://www.w3.org/1999/02/22-rdf-syntax-ns#"
   xmlns:svg="http://www.w3.org/2000/svg"
   xmlns="http://www.w3.org/2000/svg"
   xmlns:sodipodi="http://sodipodi.sourceforge.net/DTD/sodipodi-0.dtd"
   xmlns:inkscape="http://www.inkscape.org/namespaces/inkscape"
   width="900"
   height="91"
   viewBox="0 0 900 91"
   fill="none"
   version="1.1"
   id="svg18"
   sodipodi:docname="Firefly long logo.svg"
   inkscape:version="1.0.1 (3bc2e813f5, 2020-09-07)">
  <metadata
     id="metadata24">
    <rdf:RDF>
      <cc:Work
         rdf:about="">
        <dc:format>image/svg+xml</dc:format>
        <dc:type
           rdf:resource="http://purl.org/dc/dcmitype/StillImage" />
        <dc:title></dc:title>
      </cc:Work>
    </rdf:RDF>
  </metadata>
  <defs
     id="defs22" />
  <sodipodi:namedview
     pagecolor="#ffffff"
     bordercolor="#666666"
     borderopacity="1"
     objecttolerance="10"
     gridtolerance="10"
     guidetolerance="10"
     inkscape:pageopacity="0"
     inkscape:pageshadow="2"
     inkscape:window-width="1920"
     inkscape:window-height="1001"
     id="namedview20"
     showgrid="false"
     inkscape:zoom="1.35"
     inkscape:cx="450"
     inkscape:cy="45.5"
     inkscape:window-x="-9"
     inkscape:window-y="-9"
     inkscape:window-maximized="1"
     inkscape:current-layer="svg18" />
  <path
     d="M329.345 85.6839C323.542 76.0071 317.827 66.3303 312.025 56.6535C311.321 55.4219 311.497 54.7182 312.64 53.8385C323.718 45.9211 327.674 29.9983 321.608 16.8907C318.619 10.5568 313.783 5.8943 307.717 3.25517C301.387 0.440103 295.232 0.26416 289.518 0.26416H247.317C233.25 0.26416 242.569 0.52807 240.899 2.19952C239.229 3.87097 238.965 5.8943 238.965 8.6214V86.3877C238.965 87.7073 239.492 88.1471 240.723 88.1471H260.593C261.911 88.1471 262.351 87.6193 262.351 86.3877V61.404C262.351 60.0844 262.879 59.6445 264.109 59.6445H284.858C286.529 59.6445 287.32 60.0844 288.199 61.4919C293.122 69.7612 298.046 78.0305 303.057 86.3877C303.936 87.8832 304.64 88.2351 306.398 88.2351H328.026C328.641 88.2351 329.257 88.1471 329.696 87.4434C330.048 86.8276 329.872 86.2118 329.521 85.6839H329.345ZM298.485 36.948C296.112 38.6195 293.562 38.7954 290.924 38.7954H264.109C262.791 38.7954 262.351 38.2676 262.351 37.036V23.0486C262.351 21.7291 262.879 21.2892 264.109 21.2892H290.924C293.562 21.2892 296.2 21.4652 298.485 23.1366C300.683 24.7201 301.914 27.2712 301.914 30.0863C301.914 32.9014 300.683 35.4525 298.485 37.036V36.948Z"
     fill="#EAFF68"
     id="path2"
     style="fill:#17224b;fill-opacity:1" />
  <path
     d="M599.862 35.4524H568.211C566.892 35.4524 566.453 34.9246 566.453 33.693V22.8726C566.453 21.553 566.98 21.1132 568.211 21.1132H617.181C618.5 21.1132 618.94 20.5854 618.94 19.3538V2.11147C618.94 0.791905 618.412 0.352051 617.181 0.352051H551.331C548.605 0.352051 546.583 0.615961 544.913 2.28741C543.154 4.04683 542.979 5.98219 542.979 8.70929V86.4756C542.979 87.7952 543.506 88.235 544.737 88.235H564.606C565.925 88.235 566.365 87.7072 566.365 86.4756V58.149C566.365 56.8294 566.892 56.3895 568.123 56.3895H599.774C601.092 56.3895 601.532 55.8617 601.532 54.6301V37.3878C601.532 36.0683 601.004 35.6284 599.774 35.6284"
     fill="#EAFF68"
     id="path4"
     style="fill:#17224b;fill-opacity:1" />
  <path
     d="M453.131 33.7808C454.45 33.7808 454.89 34.3087 454.89 35.5403V52.7826C454.89 54.1021 454.362 54.542 453.131 54.542H420.25C418.931 54.542 418.492 55.0698 418.492 56.3014V65.4504C418.492 66.7699 419.019 67.2098 420.25 67.2098H473.089C474.408 67.2098 474.847 67.7376 474.847 68.9692V86.2115C474.847 87.5311 474.32 87.9709 473.089 87.9709H403.458C400.732 87.9709 398.71 87.707 397.04 86.0356C395.369 84.3641 395.105 82.3408 395.105 79.6137V8.35724C395.105 5.63014 395.369 3.60681 397.04 1.93536C398.798 0.175946 400.732 0 403.458 0H469.308C470.627 0 471.067 0.527826 471.067 1.75942V19.0017C471.067 20.3213 470.539 20.7611 469.308 20.7611H420.338C419.019 20.7611 418.58 21.289 418.58 22.5206V31.6695C418.58 32.9891 419.107 33.429 420.338 33.429H453.219"
     fill="#EAFF68"
     id="path6"
     style="fill:#17224b;fill-opacity:1" />
  <path
     d="M144.19 0.17627H164.06C165.027 0.17627 165.818 0.968008 165.818 1.93569V86.2998C165.818 87.2675 165.027 88.0592 164.06 88.0592H144.19C143.223 88.0592 142.432 87.2675 142.432 86.2998V1.93569C142.432 0.968008 143.223 0.17627 144.19 0.17627Z"
     fill="#EAFF68"
     id="path8"
     style="fill:#17224b;fill-opacity:1" />
  <path
     d="M56.883 35.4524H25.2325C23.9137 35.4524 23.4741 34.9246 23.4741 33.693V22.8726C23.4741 21.553 24.0017 21.1132 25.2325 21.1132H74.2029C75.5217 21.1132 75.9613 20.5854 75.9613 19.3538V2.11147C75.9613 0.791905 75.4338 0.352051 74.2029 0.352051H8.35222C5.62676 0.352051 3.60465 0.615961 1.9342 2.28741C0.263759 3.95886 0 5.98219 0 8.70929V86.4756C0 87.7952 0.527509 88.235 1.75836 88.235H21.6279C22.9466 88.235 23.3862 87.7072 23.3862 86.4756V58.149C23.3862 56.8294 23.9137 56.3895 25.1446 56.3895H56.7951C58.1139 56.3895 58.5535 55.8617 58.5535 54.6301V37.3878C58.5535 36.0683 58.026 35.6284 56.7951 35.6284"
     fill="#EAFF68"
     id="path10"
     style="fill:#17224b;fill-opacity:1" />
  <path
     d="M707.038 0.175867C708.357 0.175867 708.796 0.703693 708.796 1.93529V65.5383C708.796 66.8578 709.324 67.2977 710.555 67.2977H759.437C760.756 67.2977 761.196 67.8255 761.196 69.0571V86.2994C761.196 87.619 760.668 88.0588 759.437 88.0588H693.674C690.949 88.0588 688.927 87.7949 687.256 86.1235C685.498 84.364 685.322 82.4287 685.322 79.7016V1.84731C685.322 0.527745 685.85 0.0878906 687.081 0.0878906H707.038V0.175867Z"
     fill="#EAFF68"
     id="path12"
     style="fill:#17224b;fill-opacity:1" />
  <path
     d="M845.515 45.2177C849.208 48.5606 852.9 51.8155 856.593 55.1584C858.088 56.5659 859.231 57.6216 860.11 59.205C860.989 60.7006 861.429 62.372 861.429 64.1314C861.429 65.8908 860.989 67.5623 860.11 69.0578C859.231 70.6413 858.088 71.6969 856.593 73.1045C851.142 78.0308 845.691 82.9572 840.24 87.8836C839.009 89.0272 837.954 89.9069 836.372 90.3468C834.877 90.7866 833.295 90.6986 831.8 89.9949C830.305 89.3791 829.163 88.2355 828.459 86.8279C827.756 85.3324 827.668 83.9249 827.668 82.2534V64.2194C827.668 61.5803 827.668 59.5569 828.811 57.0937C829.866 54.7185 831.361 53.223 833.295 51.4636C835.581 49.3523 837.954 47.241 840.24 45.2177C841.032 44.5139 841.735 43.9861 842.878 43.9861C844.021 43.9861 844.724 44.5139 845.515 45.2177Z"
     fill="#EAFF68"
     id="path14"
     style="fill:#17224b;fill-opacity:1" />
  <path
     d="M824.941 0.264239C822.567 0.264239 820.809 0.26424 819.138 1.05598C817.556 1.75975 816.413 3.07931 815.798 4.57482C815.182 6.15829 815.182 7.82974 815.798 9.41322C816.501 11.0847 817.82 12.3163 819.578 13.8997C833.821 26.6555 847.976 39.4993 862.218 52.2551C865.12 54.8942 867.405 56.4777 870.834 56.4777C874.263 56.4777 876.549 54.8062 879.45 52.2551C884.286 47.9445 889.033 43.6339 893.869 39.3233C895.891 37.5639 897.298 36.0684 898.353 33.6932C899.408 31.318 899.496 29.2067 899.496 26.5676V8.26959C899.496 6.15829 899.496 4.39887 898.089 2.72742C896.858 1.14394 894.924 0.17627 892.902 0.17627C890.88 0.17627 888.77 1.40786 887.011 2.99134C882.176 7.38988 877.34 11.7005 872.505 16.099C871.538 16.9787 870.834 17.4186 869.779 17.4186C868.724 17.4186 867.933 16.9787 867.054 16.099C862.746 12.2283 858.438 8.35756 854.13 4.48684C852.547 3.07931 851.141 1.84772 849.031 1.05598C846.921 0.26424 845.162 0.17627 842.964 0.17627H824.853L824.941 0.264239Z"
     fill="#EAFF68"
     id="path16"
     style="fill:#17224b;fill-opacity:1" />
</svg>
